# xmcd CD database file
#
# Track frame offsets:
#	150
#	37285
#	67193
#	103965
#	130713
#	159023
#	205703
#
# Disc length: 2774 seconds
#
# Revision: 0
# Processed by: cddbd v1.5PL3 Copyright (c) Steve Scherf et al.
# Submitted via: CDex 1.51
#
DISCID=600ad407
DTITLE=Me Lewis - Mel Lewis and Friends
DYEAR=1977
DGENRE=Jazz
TTITLE0=Ain't Nothin' Nu
TTITLE1=A Child Is Born
TTITLE2=Moose The Mooche
TTITLE3=De Samba
TTITLE4=Windflower
TTITLE5=Sho' Nuff Did
TTITLE6=Mel Lewis - Rhythm
EXTD=YEAR: 1977
EXTT0=
EXTT1=
EXTT2=
EXTT3=
EXTT4=
EXTT5=
EXTT6=
PLAYORDER=
